<svg height="512" viewBox="0 0 60 58" width="512" xmlns="http://www.w3.org/2000/svg"><g id="002---Car-Sensors" transform="translate(-1)"><path id="Shape" d="m24.283 28.888-5-.715c-.5739979-.0820462-1.1553504.0890539-1.5933901.468957-.4380398.3799031-.6896457.931211-.6896099 1.511043v1.847c0 1.1045695.8954305 2 2 2h5c1.1045695 0 2-.8954305 2-2v-1.133c-.0038619-.9936243-.7338565-1.8350101-1.717-1.979zm-5.283 3.112v-1.847l5 .714v1.133z"/><path id="Shape" d="m42.717 28.173-5 .715c-.9831435.1439899-1.7131381.9853757-1.717 1.979v1.133c0 1.1045695.8954305 2 2 2h5c1.1045695 0 2-.8954305 2-2v-1.847c.0000358-.579832-.2515701-1.1311399-.6896099-1.511043-.4380397-.3799031-1.0193922-.5510032-1.5933901-.468957zm.283 3.827h-5v-1.133l5-.714z"/><path id="Shape" d="m33 28h-4c-.5522847 0-1 .4477153-1 1s.4477153 1 1 1h4c.5522847 0 1-.4477153 1-1s-.4477153-1-1-1z"/><path id="Shape" d="m33 32h-4c-.5522847 0-1 .4477153-1 1s.4477153 1 1 1h4c.5522847 0 1-.4477153 1-1s-.4477153-1-1-1z"/><path id="Shape" d="m24 18c.543 0 .565-.151 2.707-2.293.3789722-.3923789.3735524-1.0160848-.0121814-1.4018186s-1.0094397-.3911536-1.4018186-.0121814l-2 2c-.2859079.2859943-.3714219.7160366-.216678 1.0896546.1547439.3736179.5192821.6172591.923678.6173454z"/><path id="Shape" d="m25.293 21.707c.3904999.3903819 1.0235001.3903819 1.414 0l6-6c.3789722-.3923789.3735524-1.0160848-.0121814-1.4018186s-1.0094397-.3911536-1.4018186-.0121814l-6 6c-.3903819.3904999-.3903819 1.0235001 0 1.414z"/><path id="Shape" d="m2.419 14.871c.31575773.0001492.61303678-.148843.80189224-.4018975.18885547-.2530545.24709876-.58044.15710776-.8831025-1.03349202-3.4835469.12691408-7.24695292 2.94267461-9.54362385 2.81576053-2.29667094 6.73560069-2.67696034 9.94032539-.96437615.4839512.25908673 1.0862828.07961884 1.349509-.40209338.2632262-.48171223.0889288-1.08556025-.390509-1.35290662-3.9147166-2.11665289-8.7193615-1.66447561-12.17043097 1.14539002-3.45106947 2.80986563-4.8677654 7.42311282-3.58856903 11.68560998.12533263.4247679.51512782.7165039.958.717z"/><path id="Shape" d="m15.734 6.178c.1241867-.23443883.1501243-.50861782.0721034-.76218566-.0780209-.25356785-.253605-.46574016-.4881034-.58981434-2.4936771-1.32784094-5.54050828-1.03045109-7.73035429.75453109-2.18984602 1.78498218-3.09543693 4.70928141-2.29764571 7.41946891.1613054.5213816.71085696.8171377 1.23486361.6645754.52400664-.1525624.82891301-.6970903.68513639-1.2235754-.57516254-1.9391245.07109696-4.03394356 1.63877032-5.31199517 1.56767338-1.27805161 3.74973768-1.48903417 5.53322968-.53500483.2344388.12418672.5086178.15012429.7621857.07210341.2535678-.07802087.4657401-.253605.5898143-.48810341z"/><path id="Shape" d="m12.478 10.122c.486839.2609545 1.0930455.077839 1.354-.409.2609545-.48683901.077839-1.09304546-.409-1.354-1.0719869-.5726562-2.3835646-.44196308-3.3214692.33097022-.93790459.77293329-1.31680296 2.03537258-.9595308 3.19702978.17507427.5246705.74232949.8080743 1.267.633.5246705-.1750743.8080743-.7423295.633-1.267-.0975221-.3830993.0397947-.7876915.3503544-1.0322897.3105597-.24459818.736064-.28328638 1.0856456-.0987103z"/><path id="Shape" d="m50 0c-1.8231383-.00150004-3.6176611.45331867-5.22 1.323-.3167702.16958518-.5182088.49607885-.5276761.85526244-.0094672.3591836.1744924.69583548.4818892.88187228.3073968.18603679.6909709.1928568 1.0047869.01786528 3.2047247-1.71258419 7.1245649-1.33229479 9.9403254.96437615 2.8157605 2.29667093 3.9761666 6.06007695 2.9426746 9.54362385-.1118357.3455656-.0275065.7246006.2202932.9901531.2477996.2655525.6201034.3758648.9725692.2881687.3524659-.0876961.629669-.3596104.7241376-.7103218.9917253-3.3297947.3537163-6.9323331-1.721237-9.71901951-2.0749532-2.78668641-5.3434238-4.43059579-8.817763-4.43498049z"/><path id="Shape" d="m55.471 13.68c.5298768.1539956 1.0843477-.1503145 1.239-.68.7977912-2.7101875-.1077997-5.63448673-2.2976457-7.41946891s-5.2366772-2.08237203-7.7303543-.75453109c-.4882197.25846927-.6744692.86378028-.416 1.35199999.2584693.48821971.8637803.67446926 1.352.41600001 1.783492-.95402934 3.9655563-.74304678 5.5332297.53500483 1.5676733 1.27805161 2.2139328 3.37287067 1.6387703 5.31199517-.1539214.530175.1509111 1.0847822.681 1.239z"/><path id="Shape" d="m51.593 12.518c.5235491.1748338 1.0897438-.1075922 1.265-.631.3572722-1.1616572-.0216262-2.42409649-.9595308-3.19702978-.9379046-.7729333-2.2494823-.90362642-3.3214692-.33097022-.3149296.16880799-.5158786.49280596-.5271514.849947-.0112728.35714105.1688432.69316695.4725.8815.3036568.1883331.6847218.200361.9996514.031553.3498537-.18707171.7772128-.14963513 1.0892127.0954148.312.24505.4496334.6513679.3507873 1.0355852-.1748338.5235491.1075922 1.0897438.631 1.265z"/><path id="Shape" d="m60 43h-13.184c.245-.689.184-.609.184-5.184 1.1943509-.4222546 1.9947486-1.5492146 2-2.816v-6c-.0011503-1.2938037-.5061789-2.5362888-1.408-3.464 1.1273215-.7124332 1.6490265-2.083503 1.280465-3.3651337-.3685614-1.2816308-1.5389012-2.1661154-2.872465-2.1708663h-2.389l-1.611-5.648c-.74358-2.571399-3.0942591-4.3440824-5.771-4.352h-10.458c-2.6767409.0079176-5.02742 1.780601-5.771 4.352l-1.611 5.648h-2.389c-1.3319201.0070203-2.499732.8913811-2.8675375 2.1715293-.3678055 1.2801483.1524749 2.6495229 1.2775375 3.3624707-.9030344.9278885-1.4088342 2.1712232-1.41 3.466v6c.0052514 1.2667854.8056491 2.3937454 2 2.816 0 4.6-.06 4.5.184 5.184h-13.184c-.55228475 0-1 .4477153-1 1s.44771525 1 1 1h58c.5522847 0 1-.4477153 1-1s-.4477153-1-1-1zm-13-8c0 .5522847-.4477153 1-1 1h-30c-.5522847 0-1-.4477153-1-1v-6c0-1.6568542 1.3431458-3 3-3h26c1.6568542 0 3 1.3431458 3 3zm-25 3h18c0 4.34-.062 4.308.184 5h-18.368c.245-.687.184-.615.184-5zm24-16c.4042387.003293.7667342.2496464.9186036.6242868.1518695.3746405.0632373.8038692-.2246036 1.0877132-.38.39-.788.288-1.94.288l-.571-2zm-24.075-7.1c.496263-1.7131325 2.062446-2.8940817 3.846-2.9h10.458c1.783554.0059183 3.349737 1.1868675 3.846 2.9l2.6 9.1h-23.349zm-5.925 7.1h1.817l-.571 2c-1.249 0-1.573.088-1.958-.306-.2773947-.2877517-.356804-.7130417-.2019365-1.0815046.1548676-.3684629.5142632-.6093201.9139365-.6124954zm2 21c-.5522847 0-1-.4477153-1-1v-4h3v4c0 .5522847-.4477153 1-1 1zm25 0c-.5522847 0-1-.4477153-1-1v-4h3v4c0 .5522847-.4477153 1-1 1z"/><path id="Shape" d="m10.1 52.458c-.11796258.238576-.13595453.5143337-.0499921.7662149.0859625.2518812.2687868.4591039.5079921.5757851 11.37 5.606 29.509 5.609 40.884 0 .4970562-.2441099.7021098-.8449437.4579999-1.342-.2441098-.4970562-.8449436-.7021098-1.3419999-.458-10.815 5.333-28.3 5.334-39.116 0-.238576-.1179626-.5143337-.1359545-.7662149-.0499921-.2518812.0859625-.4591039.2687868-.5757851.5079921z"/><path id="Shape" d="m15.821 49.626c-.2452001.4948481-.0428363 1.0947761.452 1.34 8.176 4.047 21.275 4.049 29.454 0 .3226931-.1571307.5364279-.4751467.5600413-.8332854.0236134-.3581386-.1465168-.7014642-.4457856-.8996032s-.6817708-.2206983-1.0022557-.0591114c-7.608 3.766-20.046 3.777-27.678 0-.4948481-.2452001-1.0947761-.0428363-1.34.452z"/><path id="Shape" d="m40.012 48.135c.3280274-.1546081.546648-.4746861.5713361-.8364819.0246881-.3617957-.1484257-.7086048-.45241-.9063398-.3039844-.1977351-.6911958-.2154051-1.0119261-.0461783-4.415 2.205-11.811 2.211-16.238 0-.3207303-.1692268-.7079417-.1515568-1.0119261.0461783-.3039843.197735-.4770981.5445441-.45241.9063398.0246881.3617958.2433087.6818738.5713361.8364819 4.983 2.489 13.042 2.488 18.024 0z"/></g></svg>