<?xml version="1.0" encoding="iso-8859-1"?>
<!-- Generator: Adobe Illustrator 16.0.0, SVG Export Plug-In . SVG Version: 6.00 Build 0)  -->
<!DOCTYPE svg PUBLIC "-//W3C//DTD SVG 1.1//EN" "http://www.w3.org/Graphics/SVG/1.1/DTD/svg11.dtd">
<svg version="1.1" id="Capa_1" xmlns="http://www.w3.org/2000/svg" xmlns:xlink="http://www.w3.org/1999/xlink" x="0px" y="0px"
	 width="167.701px" height="167.701px" viewBox="0 0 167.701 167.701" style="enable-background:new 0 0 167.701 167.701;"
	 xml:space="preserve">
<g>
	<g>
		<path d="M149.418,65.807H82.831c-1.658,0-3.011,1.344-3.011,3.013c0,1.671,1.353,3.015,3.011,3.015h66.588
			c1.67,0,3.021-1.343,3.021-3.015C152.439,67.15,151.088,65.807,149.418,65.807z"/>
		<path d="M152.439,82.576c0-1.669-1.351-3.019-3.021-3.019H82.831c-1.658,0-3.011,1.35-3.011,3.019
			c0,1.669,1.353,3.016,3.011,3.016h66.588C151.088,85.591,152.439,84.245,152.439,82.576z"/>
		<path d="M82.831,93.32c-1.658,0-3.011,1.347-3.011,3.021c0,1.675,1.353,3.021,3.011,3.021h38.974c1.661,0,3.007-1.346,3.007-3.021
			c0-1.674-1.346-3.021-3.007-3.021H82.831z"/>
		<path d="M12.007,39.914c0.206-0.074,2.113-0.752,4.968-1.598v-1.22c0-2.238,1.817-4.058,4.063-4.058h2.908
			c-1.447-2.241-2.505-4.692-3.201-7.234c-6.102,0.162-11.026,5.145-11.026,11.292v4.128c0.336-0.224,0.651-0.459,1.042-0.656
			C11.024,40.378,11.44,40.119,12.007,39.914z"/>
		<path d="M156.374,25.775H59.151c-0.688,2.549-1.748,5.017-3.205,7.263h100.433c2.237,0,4.062,1.819,4.062,4.058v80.838
			c0,2.232-1.816,4.06-4.062,4.06H63.87l0.583,7.256h91.926c6.243,0,11.321-5.066,11.321-11.315V37.096
			C167.697,30.846,162.623,25.775,156.374,25.775z"/>
		<path d="M9.714,103.881v14.053c0,4.246,2.37,7.906,5.839,9.839l1.421-17.676V94.836l-0.272,1.231
			C15.877,99.744,13.104,102.623,9.714,103.881z"/>
		<path d="M39.943,38.006c8.45,0,15.298-9.794,15.298-18.243S48.387,4.466,39.943,4.466c-8.443,0-15.297,6.854-15.297,15.297
			C24.646,28.212,31.492,38.006,39.943,38.006z"/>
		<path d="M62.095,55.832c0.67,0.241,1.364,0.358,2.048,0.358l0,0h29.059c3.338,0,6.05-2.706,6.05-6.052
			c0-3.344-2.712-6.052-6.05-6.052H65.165c-3.229-1.091-13.47-4.285-22.991-4.744l-1.424,2.846h-0.04l4.074,31.738l-4.841,8.454
			l-4.837-8.454l4.074-31.738h-0.038l-1.438-2.886c-11.224,0.555-23.467,4.949-24.023,5.143c-0.196,0.075-0.331,0.23-0.527,0.32
			c-0.38,0.186-0.745,0.392-1.081,0.662c-0.302,0.235-0.556,0.482-0.803,0.761c-0.257,0.293-0.481,0.594-0.689,0.936
			c-0.193,0.353-0.348,0.709-0.48,1.1c-0.078,0.208-0.22,0.375-0.269,0.6L0.143,92.39c-0.717,3.261,1.333,6.49,4.594,7.213
			c0.449,0.104,0.887,0.147,1.324,0.147c2.771,0,5.272-1.921,5.904-4.739l8.938-40.205c0.616-0.189,1.333-0.396,2.101-0.616v41.303
			l-4.825,59.901c-0.317,3.994,2.661,7.496,6.656,7.82c0.203,0.016,0.388,0.021,0.591,0.021c3.743,0,6.919-2.883,7.226-6.681
			l4.356-54.117c0.895,0.393,1.889,0.622,2.925,0.622c1.048,0,2.033-0.229,2.93-0.622l4.354,54.117
			c0.309,3.798,3.485,6.681,7.228,6.681c0.192,0,0.385-0.005,0.588-0.021c3.999-0.324,6.976-3.826,6.651-7.82l-4.813-59.891V54.201
			C59.957,55.077,62.037,55.816,62.095,55.832z"/>
	</g>
</g>
<g>
</g>
<g>
</g>
<g>
</g>
<g>
</g>
<g>
</g>
<g>
</g>
<g>
</g>
<g>
</g>
<g>
</g>
<g>
</g>
<g>
</g>
<g>
</g>
<g>
</g>
<g>
</g>
<g>
</g>
</svg>
